# xmcd
#
# Track frame offsets:
#	150
#	11592
#	24133
#	36876
#	49564
#	66064
#	76986
#	89379
#	102352
#	114885
#	130224
#	143235
#	154713
#
# Disc length: 2260 seconds
#
# Revision: 3
# Processed by: cddbd v1.5.1PL0 Copyright (c) Steve Scherf et al.
# Submitted via: EasyCDDAExtractor 6.0.0.1
#
DISCID=9708d20d
DTITLE=Various Artist - Country Night: A Night To Remember
DYEAR=2003
DGENRE=Country
TTITLE0=Jett Williams - I Can't Help It
TTITLE1=Jett Williams - Honky Tonk Blues
TTITLE2=Jett Williams - My Broken Heart And Me
TTITLE3=Tomboola Band - A Good Old Country Song
TTITLE4=Tomboola Band - Down In Louisiana
TTITLE5=Tomboola Band - Sugarfoot Rag
TTITLE6=Charlie McCoy - Scotland
TTITLE7=Charlie McCoy - Honky Tonk Attitude
TTITLE8=Lecia - Sweet Dreams
TTITLE9=Billy Swan - Wild, Young And Reckless
TTITLE10=Billy Swan - I'd Rather Be Dancing With You
TTITLE11=Heidi Hauge - Diggy Liggy Lo
TTITLE12=Heidi Hauge - Harper Valley PTA
EXTD=
EXTT0=
EXTT1=
EXTT2=
EXTT3=
EXTT4=
EXTT5=
EXTT6=
EXTT7=
EXTT8=
EXTT9=
EXTT10=
EXTT11=
EXTT12=
PLAYORDER=
